<svg viewBox="0 0 240 200" fill="none" xmlns="http://www.w3.org/2000/svg" aria-hidden="true">
  <!-- Radiating celebration lines at the top -->
  <path d="M 120 70 L 120 40" stroke="currentColor" stroke-width="4" stroke-linecap="round"/>
  <path d="M 90 75 L 75 55" stroke="currentColor" stroke-width="4" stroke-linecap="round"/>
  <path d="M 150 75 L 165 55" stroke="currentColor" stroke-width="4" stroke-linecap="round"/>
  <path d="M 65 95 L 45 85" stroke="currentColor" stroke-width="4" stroke-linecap="round"/>
  <path d="M 175 95 L 195 85" stroke="currentColor" stroke-width="4" stroke-linecap="round"/>

  <!-- Left Hand (Single continuous BEM-aligned outline path) -->
  <path d="M 15 200 C 22 170 30 150 42 132 C 38 118 32 98 44 92 C 54 87 58 100 62 115 C 65 95 68 75 76 60 C 82 50 91 52 88 68 C 84 90 78 110 76 125 C 81 105 88 85 96 70 C 101 60 111 62 106 78 C 101 100 94 120 91 135 C 96 115 104 95 111 80 C 116 70 126 72 121 88 C 114 110 106 130 101 145 C 108 135 116 120 124 110 C 130 100 138 105 134 120 C 126 145 111 175 92 200" stroke="currentColor" stroke-width="4.5" stroke-linecap="round" stroke-linejoin="round"/>
  
  <!-- Right Hand (Perfect mirrored path of the Left Hand) -->
  <path d="M 225 200 C 218 170 210 150 198 132 C 202 118 208 98 196 92 C 186 87 182 100 178 115 C 175 95 172 75 164 60 C 158 50 149 52 152 68 C 156 90 162 110 164 125 C 159 105 152 85 144 70 C 139 60 129 62 134 78 C 139 100 146 120 149 135 C 144 115 136 95 129 80 C 124 70 114 72 119 88 C 126 110 134 130 139 145 C 132 135 124 120 116 110 C 110 100 102 105 106 120 C 114 145 129 175 148 200" stroke="currentColor" stroke-width="4.5" stroke-linecap="round" stroke-linejoin="round"/>
</svg>
